<svg width="828" height="828" viewBox="0 0 828 828" fill="none" xmlns="http://www.w3.org/2000/svg">
<rect width="828" height="828" fill="url(#paint0_radial_28_8)"/>
<path d="M256 212C256 195.431 269.431 182 286 182C302.569 182 316 195.431 316 212L316 367C316 383.569 302.569 397 286 397C269.431 397 256 383.569 256 367L256 212Z" fill="white"/>
<path d="M664 116C690.51 116 712 137.49 712 164V664C712 690.51 690.51 712 664 712H387C360.49 712 339 690.51 339 664V645.975C444.96 621.69 524 526.826 524 413.5C524 300.174 444.96 205.309 339 181.024V164C339 137.49 360.49 116 387 116H664ZM642 156C625.431 156 612 169.431 612 186C612 202.569 625.431 216 642 216C658.569 216 672 202.569 672 186C672 169.431 658.569 156 642 156Z" fill="white"/>
<path d="M375.762 303.562C406.467 329.243 426 367.84 426 411C426 488.32 363.32 551 286 551C208.68 551 146 488.32 146 411C146 367.84 165.532 329.243 196.237 303.562" stroke="white" stroke-width="60" stroke-linecap="round"/>
<defs>
<radialGradient id="paint0_radial_28_8" cx="0" cy="0" r="1" gradientUnits="userSpaceOnUse" gradientTransform="translate(828 828) rotate(-135) scale(1170.97)">
<stop/>
<stop offset="1" stop-color="#393939"/>
</radialGradient>
</defs>
</svg>
